<!-- Generated by IcoMoon.io -->
<svg version="1.1" xmlns="http://www.w3.org/2000/svg" width="19" height="16" viewBox="0 0 19 16">
<title>wallet</title>
<path d="M16.255 3.75c0.138 0 0.25-0.112 0.25-0.25v-0.833c0-0.451-0.367-0.819-0.819-0.819h-1.344l-0.306-0.904c-0.043-0.128-0.18-0.199-0.309-0.159l-7.277 2.212c-0.132 0.041-0.207 0.18-0.167 0.312 0.033 0.108 0.132 0.177 0.239 0.177 0.024 0 0.048-0.003 0.073-0.010l7.045-2.142 0.671 1.982c0.044 0.131 0.188 0.202 0.317 0.156 0.131-0.044 0.201-0.187 0.156-0.317l-0.274-0.808h1.175c0.176 0 0.319 0.143 0.319 0.319v0.833c-0 0.138 0.111 0.25 0.25 0.25zM18.25 7.5c-0.138 0-0.25 0.112-0.25 0.25s0.112 0.25 0.25 0.25c0.175 0 0.25 0.075 0.25 0.25v3c0 0.175-0.075 0.25-0.25 0.25h-4c-0.175 0-0.25-0.075-0.25-0.25v-2.5c0-0.175 0.075-0.25 0.25-0.25h3c0.138 0 0.25-0.112 0.25-0.25v-3c0-0.455-0.294-0.75-0.75-0.75h-15.25c-0.617 0-1-0.383-1-1s0.383-1 1-1h2.538l-1.513 0.499c-0.131 0.043-0.203 0.184-0.159 0.316 0.034 0.105 0.132 0.171 0.237 0.171 0.026 0 0.052-0.004 0.079-0.013l9.059-2.986c0.131-0.043 0.203-0.184 0.159-0.316s-0.184-0.203-0.316-0.159l-6.050 1.995c-0.011-0.002-0.022-0.007-0.034-0.007h-4c-0.897 0-1.5 0.603-1.5 1.5v11c0 0.897 0.603 1.5 1.5 1.5h15.25c0.456 0 0.75-0.294 0.75-0.75v-2.5c0-0.138-0.112-0.25-0.25-0.25s-0.25 0.112-0.25 0.25v2.5c0 0.175-0.075 0.25-0.25 0.25h-15.25c-0.617 0-1-0.383-1-1v-9.844c0.256 0.216 0.596 0.344 1 0.344h15.25c0.175 0 0.25 0.074 0.25 0.25v2.75h-2.75c-0.456 0-0.75 0.294-0.75 0.75v2.5c0 0.456 0.294 0.75 0.75 0.75h4c0.456 0 0.75-0.294 0.75-0.75v-3c0-0.455-0.294-0.75-0.75-0.75zM15.5 10c0 0.276 0.224 0.5 0.5 0.5s0.5-0.224 0.5-0.5c0-0.276-0.224-0.5-0.5-0.5s-0.5 0.224-0.5 0.5z"></path>
</svg>
